<svg width="390" height="651" viewBox="0 0 390 651" fill="none" xmlns="http://www.w3.org/2000/svg">
<rect width="390" height="651" fill="#121212"/>
<ellipse cx="134" cy="246" rx="100" ry="100" transform="rotate(90 134 246)" fill="url(#paint0_linear_1017_70)"/>
<path d="M71.8555 523L77.7115 505.312H80.9275L86.7835 523H83.8315L80.9755 513.4C80.6875 512.44 80.4075 511.472 80.1355 510.496C79.8635 509.504 79.5915 508.512 79.3195 507.52H79.2235C78.9675 508.528 78.6955 509.52 78.4075 510.496C78.1355 511.472 77.8555 512.44 77.5675 513.4L74.7115 523H71.8555ZM75.1675 517.984V515.776H83.4235V517.984H75.1675ZM89.1132 523V505.312H91.8972V523H89.1132ZM100.575 514.144H103.071V519.352H100.575V514.144ZM101.799 504.4C102.919 504.4 103.919 504.624 104.799 505.072C105.695 505.52 106.399 506.144 106.911 506.944C107.423 507.728 107.679 508.632 107.679 509.656C107.679 510.68 107.423 511.592 106.911 512.392C106.399 513.192 105.695 513.816 104.799 514.264C103.919 514.712 102.919 514.936 101.799 514.936C100.679 514.936 99.6714 514.712 98.7754 514.264C97.8954 513.816 97.1994 513.192 96.6874 512.392C96.1754 511.592 95.9194 510.68 95.9194 509.656C95.9194 508.632 96.1754 507.728 96.6874 506.944C97.1994 506.144 97.8954 505.52 98.7754 505.072C99.6714 504.624 100.679 504.4 101.799 504.4ZM101.799 506.56C101.143 506.56 100.551 506.688 100.023 506.944C99.5114 507.184 99.1034 507.544 98.7994 508.024C98.5114 508.488 98.3674 509.032 98.3674 509.656C98.3674 510.296 98.5114 510.856 98.7994 511.336C99.1034 511.8 99.5114 512.16 100.023 512.416C100.551 512.672 101.143 512.8 101.799 512.8C102.455 512.8 103.039 512.672 103.551 512.416C104.063 512.16 104.471 511.8 104.775 511.336C105.079 510.856 105.231 510.296 105.231 509.656C105.231 509.032 105.079 508.488 104.775 508.024C104.471 507.544 104.063 507.184 103.551 506.944C103.039 506.688 102.455 506.56 101.799 506.56ZM109.839 503.032H112.335V524.968H109.839V503.032ZM111.591 511.888H115.551V513.976H111.591V511.888ZM95.3914 520.408L95.0554 518.344C96.3354 518.344 97.7434 518.336 99.2794 518.32C100.815 518.304 102.375 518.248 103.959 518.152C105.559 518.056 107.095 517.912 108.567 517.72L108.759 519.568C107.223 519.84 105.663 520.04 104.079 520.168C102.511 520.28 100.983 520.352 99.4954 520.384C98.0074 520.4 96.6394 520.408 95.3914 520.408ZM139.06 503.032H141.46V524.968H139.06V503.032ZM135.7 511.672H139.684V513.736H135.7V511.672ZM134.116 503.488H136.468V523.888H134.116V503.488ZM123.484 517.696H124.948C125.956 517.696 126.884 517.68 127.732 517.648C128.58 517.616 129.404 517.56 130.204 517.48C131.02 517.384 131.852 517.256 132.7 517.096L132.94 519.16C132.06 519.336 131.204 519.472 130.372 519.568C129.54 519.648 128.684 519.704 127.804 519.736C126.94 519.768 125.988 519.784 124.948 519.784H123.484V517.696ZM123.484 505.648H131.596V507.688H125.956V518.656H123.484V505.648ZM150.242 516.088H152.762V519.64H150.242V516.088ZM159.458 503.056H161.978V524.992H159.458V503.056ZM161.138 512.176H165.098V514.264H161.138V512.176ZM144.938 521.032L144.602 518.968C145.898 518.968 147.314 518.96 148.85 518.944C150.386 518.928 151.962 518.872 153.578 518.776C155.194 518.68 156.746 518.528 158.234 518.32L158.426 520.144C156.874 520.432 155.298 520.64 153.698 520.768C152.098 520.896 150.554 520.976 149.066 521.008C147.578 521.024 146.202 521.032 144.938 521.032ZM144.986 505.6H157.994V507.592H144.986V505.6ZM151.514 508.672C152.538 508.672 153.442 508.848 154.226 509.2C155.026 509.536 155.65 510.008 156.098 510.616C156.546 511.224 156.77 511.944 156.77 512.776C156.77 513.592 156.546 514.312 156.098 514.936C155.65 515.544 155.026 516.016 154.226 516.352C153.442 516.688 152.538 516.856 151.514 516.856C150.474 516.856 149.554 516.688 148.754 516.352C147.97 516.016 147.354 515.544 146.906 514.936C146.474 514.312 146.258 513.592 146.258 512.776C146.258 511.944 146.474 511.224 146.906 510.616C147.354 510.008 147.97 509.536 148.754 509.2C149.554 508.848 150.474 508.672 151.514 508.672ZM151.514 510.592C150.65 510.592 149.954 510.792 149.426 511.192C148.898 511.576 148.634 512.104 148.634 512.776C148.634 513.448 148.898 513.976 149.426 514.36C149.954 514.744 150.65 514.936 151.514 514.936C152.378 514.936 153.074 514.744 153.602 514.36C154.13 513.976 154.394 513.448 154.394 512.776C154.394 512.104 154.13 511.576 153.602 511.192C153.074 510.792 152.378 510.592 151.514 510.592ZM150.242 503.104H152.762V507.016H150.242V503.104ZM181.416 503.056H183.936V524.992H181.416V503.056ZM183.36 511.864H187.32V513.952H183.36V511.864ZM166.8 506.44H179.664V508.456H166.8V506.44ZM173.328 510.016C174.368 510.016 175.296 510.24 176.112 510.688C176.928 511.12 177.568 511.72 178.032 512.488C178.512 513.256 178.752 514.136 178.752 515.128C178.752 516.136 178.512 517.024 178.032 517.792C177.568 518.56 176.928 519.168 176.112 519.616C175.296 520.048 174.36 520.264 173.304 520.264C172.264 520.264 171.336 520.048 170.52 519.616C169.704 519.168 169.056 518.56 168.576 517.792C168.112 517.024 167.88 516.136 167.88 515.128C167.88 514.136 168.112 513.256 168.576 512.488C169.056 511.72 169.704 511.12 170.52 510.688C171.336 510.24 172.272 510.016 173.328 510.016ZM173.304 512.08C172.728 512.08 172.208 512.208 171.744 512.464C171.28 512.72 170.912 513.08 170.64 513.544C170.384 513.992 170.256 514.52 170.256 515.128C170.256 515.752 170.384 516.296 170.64 516.76C170.912 517.208 171.28 517.56 171.744 517.816C172.208 518.072 172.728 518.2 173.304 518.2C173.896 518.2 174.416 518.072 174.864 517.816C175.328 517.56 175.688 517.208 175.944 516.76C176.216 516.296 176.352 515.752 176.352 515.128C176.352 514.52 176.216 513.992 175.944 513.544C175.688 513.08 175.328 512.72 174.864 512.464C174.416 512.208 173.896 512.08 173.304 512.08ZM172.032 503.344H174.552V507.28H172.032V503.344ZM199.175 508.168H205.607V510.208H199.175V508.168ZM199.175 514.144H205.607V516.184H199.175V514.144ZM189.839 505.096H200.015V519.52H189.839V505.096ZM197.543 507.088H192.311V517.528H197.543V507.088ZM204.695 503.032H207.215V525.016H204.695V503.032ZM218.963 504.112H232.979V506.152H218.963V504.112ZM216.467 512.104H236.339V514.144H216.467V512.104ZM231.395 504.112H233.867V505.792C233.867 506.736 233.835 507.76 233.771 508.864C233.723 509.952 233.531 511.232 233.195 512.704L230.699 512.632C231.051 511.176 231.251 509.904 231.299 508.816C231.363 507.728 231.395 506.72 231.395 505.792V504.112ZM218.867 516.808H233.867V524.704H218.867V516.808ZM231.419 518.8H221.315V522.712H231.419V518.8ZM243.273 514.216H245.769V518.56H243.273V514.216ZM251.169 514.216H253.689V518.56H251.169V514.216ZM238.545 513.112H258.369V515.128H238.545V513.112ZM248.409 517.096C250.777 517.096 252.625 517.44 253.953 518.128C255.297 518.8 255.969 519.768 255.969 521.032C255.969 522.296 255.297 523.264 253.953 523.936C252.625 524.624 250.777 524.968 248.409 524.968C246.057 524.968 244.209 524.624 242.865 523.936C241.537 523.264 240.873 522.296 240.873 521.032C240.873 519.768 241.537 518.8 242.865 518.128C244.209 517.44 246.057 517.096 248.409 517.096ZM248.409 519.016C247.353 519.016 246.449 519.096 245.697 519.256C244.945 519.4 244.369 519.624 243.969 519.928C243.585 520.216 243.393 520.584 243.393 521.032C243.393 521.48 243.585 521.856 243.969 522.16C244.369 522.448 244.945 522.672 245.697 522.832C246.449 522.976 247.353 523.048 248.409 523.048C249.497 523.048 250.409 522.976 251.145 522.832C251.897 522.672 252.465 522.448 252.849 522.16C253.233 521.856 253.425 521.48 253.425 521.032C253.425 520.584 253.233 520.216 252.849 519.928C252.465 519.624 251.897 519.4 251.145 519.256C250.409 519.096 249.497 519.016 248.409 519.016ZM248.457 503.44C250.057 503.44 251.441 503.608 252.609 503.944C253.777 504.28 254.673 504.76 255.297 505.384C255.937 505.992 256.257 506.736 256.257 507.616C256.257 508.48 255.937 509.224 255.297 509.848C254.673 510.456 253.777 510.928 252.609 511.264C251.441 511.584 250.057 511.744 248.457 511.744C246.857 511.744 245.465 511.584 244.281 511.264C243.113 510.928 242.209 510.456 241.569 509.848C240.945 509.224 240.633 508.48 240.633 507.616C240.633 506.736 240.945 505.992 241.569 505.384C242.209 504.76 243.113 504.28 244.281 503.944C245.465 503.608 246.857 503.44 248.457 503.44ZM248.457 505.384C247.369 505.384 246.433 505.472 245.649 505.648C244.865 505.824 244.265 506.08 243.849 506.416C243.433 506.736 243.225 507.136 243.225 507.616C243.225 508.08 243.433 508.48 243.849 508.816C244.265 509.136 244.865 509.384 245.649 509.56C246.433 509.736 247.369 509.824 248.457 509.824C249.545 509.824 250.473 509.736 251.241 509.56C252.025 509.384 252.625 509.136 253.041 508.816C253.457 508.48 253.665 508.08 253.665 507.616C253.665 507.136 253.457 506.736 253.041 506.416C252.625 506.08 252.025 505.824 251.241 505.648C250.473 505.472 249.545 505.384 248.457 505.384ZM271.102 504.208H273.19V506.32C273.19 507.744 272.95 509.08 272.47 510.328C272.006 511.56 271.318 512.64 270.406 513.568C269.51 514.496 268.422 515.192 267.142 515.656L265.798 513.664C266.95 513.264 267.918 512.688 268.702 511.936C269.502 511.184 270.102 510.328 270.502 509.368C270.902 508.392 271.102 507.376 271.102 506.32V504.208ZM271.606 504.208H273.646V506.536C273.646 507.24 273.758 507.928 273.982 508.6C274.206 509.256 274.534 509.88 274.966 510.472C275.414 511.048 275.958 511.56 276.598 512.008C277.238 512.456 277.966 512.816 278.782 513.088L277.462 515.056C276.23 514.608 275.174 513.96 274.294 513.112C273.43 512.264 272.766 511.28 272.302 510.16C271.838 509.024 271.606 507.816 271.606 506.536V504.208ZM280.63 503.056H283.126V516.208H280.63V503.056ZM282.454 508.456H286.222V510.544H282.454V508.456ZM276.07 516.76C277.59 516.76 278.886 516.92 279.958 517.24C281.046 517.56 281.886 518.032 282.478 518.656C283.07 519.264 283.366 520 283.366 520.864C283.366 521.712 283.07 522.44 282.478 523.048C281.886 523.672 281.046 524.144 279.958 524.464C278.886 524.784 277.59 524.944 276.07 524.944C274.566 524.944 273.262 524.784 272.158 524.464C271.07 524.144 270.23 523.672 269.638 523.048C269.062 522.44 268.774 521.712 268.774 520.864C268.774 520 269.062 519.264 269.638 518.656C270.23 518.032 271.07 517.56 272.158 517.24C273.262 516.92 274.566 516.76 276.07 516.76ZM276.07 518.728C275.062 518.728 274.198 518.808 273.478 518.968C272.758 519.128 272.206 519.368 271.822 519.688C271.438 520.008 271.246 520.4 271.246 520.864C271.246 521.312 271.438 521.696 271.822 522.016C272.206 522.336 272.758 522.584 273.478 522.76C274.198 522.92 275.062 523 276.07 523C277.094 523 277.958 522.92 278.662 522.76C279.382 522.584 279.934 522.336 280.318 522.016C280.702 521.696 280.894 521.312 280.894 520.864C280.894 520.4 280.702 520.008 280.318 519.688C279.934 519.368 279.382 519.128 278.662 518.968C277.958 518.808 277.094 518.728 276.07 518.728ZM296.756 514.888H299.252V518.464H296.756V514.888ZM288.092 513.496H307.916V515.512H288.092V513.496ZM289.868 503.704H306.092V505.72H289.868V503.704ZM289.988 509.728H305.948V511.744H289.988V509.728ZM292.964 504.496H295.46V511.048H292.964V504.496ZM300.5 504.496H302.996V511.048H300.5V504.496ZM290.468 517.72H305.516V524.704H290.468V517.72ZM303.044 519.712H292.916V522.712H303.044V519.712ZM320.082 503.392C322.546 503.392 324.458 503.72 325.818 504.376C327.194 505.016 327.882 505.944 327.882 507.16C327.882 508.376 327.194 509.312 325.818 509.968C324.458 510.624 322.546 510.952 320.082 510.952C317.618 510.952 315.698 510.624 314.322 509.968C312.946 509.312 312.258 508.376 312.258 507.16C312.258 505.944 312.946 505.016 314.322 504.376C315.698 503.72 317.618 503.392 320.082 503.392ZM320.058 505.264C318.938 505.264 317.986 505.336 317.202 505.48C316.434 505.624 315.85 505.84 315.45 506.128C315.066 506.4 314.874 506.744 314.874 507.16C314.874 507.576 315.066 507.928 315.45 508.216C315.85 508.504 316.434 508.72 317.202 508.864C317.986 509.008 318.938 509.08 320.058 509.08C321.21 509.08 322.17 509.008 322.938 508.864C323.706 508.72 324.29 508.504 324.69 508.216C325.09 507.928 325.29 507.576 325.29 507.16C325.29 506.744 325.09 506.4 324.69 506.128C324.29 505.84 323.706 505.624 322.938 505.48C322.17 505.336 321.21 505.264 320.058 505.264ZM310.17 512.224H329.994V514.216H310.17V512.224ZM312.498 515.8H327.498V521.056H315.018V523.384H312.546V519.28H325.026V517.696H312.498V515.8ZM312.546 522.856H328.122V524.776H312.546V522.856Z" fill="white"/>
<path d="M86.7681 552.28H89.2641V556.216H86.7681V552.28ZM83.7921 555.688H86.2881V557.8H95.9601V555.688H98.4801V563.704H83.7921V555.688ZM86.2881 559.696V561.712H95.9601V559.696H86.2881ZM95.9361 542.056H98.4801V554.656H95.9361V542.056ZM80.7681 553.504L80.4801 551.488C81.8401 551.488 83.3121 551.48 84.8961 551.464C86.4961 551.432 88.1281 551.376 89.7921 551.296C91.4561 551.2 93.0641 551.048 94.6161 550.84L94.7841 552.664C93.1841 552.92 91.5601 553.112 89.9121 553.24C88.2641 553.368 86.6561 553.448 85.0881 553.48C83.5361 553.496 82.0961 553.504 80.7681 553.504ZM86.5041 542.608H88.5201V543.592C88.5201 544.664 88.2801 545.656 87.8001 546.568C87.3361 547.48 86.6481 548.264 85.7361 548.92C84.8241 549.56 83.7201 550.032 82.4241 550.336L81.3201 548.416C82.4401 548.176 83.3841 547.816 84.1521 547.336C84.9201 546.84 85.5041 546.272 85.9041 545.632C86.3041 544.992 86.5041 544.312 86.5041 543.592V542.608ZM87.0801 542.608H89.0961V543.592C89.0961 544.264 89.2961 544.904 89.6961 545.512C90.1121 546.12 90.6961 546.648 91.4481 547.096C92.2161 547.544 93.1361 547.88 94.2081 548.104L93.1521 550C91.8881 549.712 90.8001 549.264 89.8881 548.656C88.9761 548.048 88.2801 547.312 87.8001 546.448C87.3201 545.568 87.0801 544.616 87.0801 543.592V542.608ZM118.854 542.032H121.254V563.968H118.854V542.032ZM109.71 550.768H114.846V552.76H109.71V550.768ZM114.27 542.56H116.622V562.912H114.27V542.56ZM109.542 544.72H111.966C111.966 546.72 111.702 548.608 111.174 550.384C110.662 552.16 109.806 553.8 108.606 555.304C107.422 556.808 105.83 558.152 103.83 559.336L102.39 557.536C104.086 556.528 105.454 555.4 106.494 554.152C107.55 552.904 108.318 551.536 108.798 550.048C109.294 548.56 109.542 546.952 109.542 545.224V544.72ZM103.446 544.72H110.382V546.76H103.446V544.72ZM145.507 542.032H148.027V564.016H145.507V542.032ZM136.363 543.64C137.451 543.64 138.419 543.96 139.267 544.6C140.131 545.24 140.803 546.136 141.283 547.288C141.763 548.44 142.003 549.8 142.003 551.368C142.003 552.952 141.763 554.328 141.283 555.496C140.803 556.648 140.131 557.544 139.267 558.184C138.419 558.808 137.451 559.12 136.363 559.12C135.275 559.12 134.299 558.808 133.435 558.184C132.587 557.544 131.915 556.648 131.419 555.496C130.939 554.328 130.699 552.952 130.699 551.368C130.699 549.8 130.939 548.44 131.419 547.288C131.915 546.136 132.587 545.24 133.435 544.6C134.299 543.96 135.275 543.64 136.363 543.64ZM136.363 545.92C135.723 545.92 135.155 546.136 134.659 546.568C134.179 547 133.803 547.624 133.531 548.44C133.259 549.256 133.123 550.232 133.123 551.368C133.123 552.52 133.259 553.504 133.531 554.32C133.803 555.136 134.179 555.768 134.659 556.216C135.155 556.648 135.723 556.864 136.363 556.864C137.003 556.864 137.563 556.648 138.043 556.216C138.523 555.768 138.899 555.136 139.171 554.32C139.443 553.504 139.579 552.52 139.579 551.368C139.579 550.232 139.443 549.256 139.171 548.44C138.899 547.624 138.523 547 138.043 546.568C137.563 546.136 137.003 545.92 136.363 545.92ZM152.033 545.584H162.737V547.624H152.033V545.584ZM157.385 548.872C158.313 548.872 159.129 549.088 159.833 549.52C160.553 549.952 161.121 550.552 161.537 551.32C161.953 552.072 162.161 552.952 162.161 553.96C162.161 554.968 161.953 555.856 161.537 556.624C161.121 557.392 160.553 557.992 159.833 558.424C159.129 558.856 158.313 559.072 157.385 559.072C156.489 559.072 155.681 558.856 154.961 558.424C154.241 557.992 153.673 557.392 153.257 556.624C152.857 555.856 152.657 554.968 152.657 553.96C152.657 552.952 152.857 552.072 153.257 551.32C153.673 550.552 154.241 549.952 154.961 549.52C155.681 549.088 156.489 548.872 157.385 548.872ZM157.409 550.984C156.929 550.984 156.497 551.112 156.113 551.368C155.729 551.608 155.425 551.952 155.201 552.4C154.993 552.832 154.889 553.352 154.889 553.96C154.889 554.568 154.993 555.096 155.201 555.544C155.425 555.992 155.729 556.344 156.113 556.6C156.497 556.84 156.929 556.96 157.409 556.96C157.889 556.96 158.313 556.84 158.681 556.6C159.065 556.344 159.369 555.992 159.593 555.544C159.817 555.096 159.929 554.568 159.929 553.96C159.929 553.352 159.817 552.832 159.593 552.4C159.369 551.952 159.065 551.608 158.681 551.368C158.313 551.112 157.889 550.984 157.409 550.984ZM168.329 542.032H170.729V563.968H168.329V542.032ZM165.233 551.128H169.121V553.192H165.233V551.128ZM163.673 542.488H166.025V562.96H163.673V542.488ZM156.161 542.656H158.657V546.856H156.161V542.656ZM188.631 542.056H191.151V563.992H188.631V542.056ZM190.575 550.864H194.535V552.952H190.575V550.864ZM174.015 545.44H186.879V547.456H174.015V545.44ZM180.543 549.016C181.583 549.016 182.511 549.24 183.327 549.688C184.143 550.12 184.783 550.72 185.247 551.488C185.727 552.256 185.967 553.136 185.967 554.128C185.967 555.136 185.727 556.024 185.247 556.792C184.783 557.56 184.143 558.168 183.327 558.616C182.511 559.048 181.575 559.264 180.519 559.264C179.479 559.264 178.551 559.048 177.735 558.616C176.919 558.168 176.271 557.56 175.791 556.792C175.327 556.024 175.095 555.136 175.095 554.128C175.095 553.136 175.327 552.256 175.791 551.488C176.271 550.72 176.919 550.12 177.735 549.688C178.551 549.24 179.487 549.016 180.543 549.016ZM180.519 551.08C179.943 551.08 179.423 551.208 178.959 551.464C178.495 551.72 178.127 552.08 177.855 552.544C177.599 552.992 177.471 553.52 177.471 554.128C177.471 554.752 177.599 555.296 177.855 555.76C178.127 556.208 178.495 556.56 178.959 556.816C179.423 557.072 179.943 557.2 180.519 557.2C181.111 557.2 181.631 557.072 182.079 556.816C182.543 556.56 182.903 556.208 183.159 555.76C183.431 555.296 183.567 554.752 183.567 554.128C183.567 553.52 183.431 552.992 183.159 552.544C182.903 552.08 182.543 551.72 182.079 551.464C181.631 551.208 181.111 551.08 180.519 551.08ZM179.247 542.344H181.767V546.28H179.247V542.344ZM198.277 544.096H212.293V546.136H198.277V544.096ZM196.213 559.048H216.037V561.112H196.213V559.048ZM203.605 551.344H206.125V560.056H203.605V551.344ZM211.381 544.096H213.877V546.232C213.877 547.144 213.869 548.104 213.853 549.112C213.837 550.12 213.773 551.232 213.661 552.448C213.549 553.664 213.349 555.032 213.061 556.552L210.541 556.264C210.957 554.12 211.197 552.24 211.261 550.624C211.341 549.008 211.381 547.544 211.381 546.232V544.096ZM239.21 542.032H241.73V564.016H239.21V542.032ZM224.858 543.832H227.354V549.424H232.898V543.832H235.394V558.808H224.858V543.832ZM227.354 551.392V556.768H232.898V551.392H227.354ZM247.752 544.096H261.768V546.136H247.752V544.096ZM245.76 559.048H265.584V561.112H245.76V559.048ZM250.32 551.944H252.792V559.744H250.32V551.944ZM261 544.096H263.496V546.376C263.496 547.288 263.488 548.24 263.472 549.232C263.456 550.224 263.392 551.296 263.28 552.448C263.184 553.6 263.008 554.888 262.752 556.312L260.256 556.048C260.624 554.032 260.84 552.256 260.904 550.72C260.968 549.168 261 547.72 261 546.376V544.096ZM255.744 551.944H258.216V559.744H255.744V551.944ZM273.55 555.136C273.038 555.136 272.598 554.952 272.23 554.584C271.878 554.2 271.702 553.736 271.702 553.192C271.702 552.616 271.878 552.144 272.23 551.776C272.598 551.408 273.038 551.224 273.55 551.224C274.062 551.224 274.502 551.408 274.87 551.776C275.238 552.144 275.422 552.616 275.422 553.192C275.422 553.736 275.238 554.2 274.87 554.584C274.502 554.952 274.062 555.136 273.55 555.136ZM281.596 553.456H301.468V555.472H281.596V553.456ZM290.476 554.512H292.996V559.384H290.476V554.512ZM284.02 561.496H299.26V563.536H284.02V561.496ZM284.02 557.56H286.516V562.312H284.02V557.56ZM284.188 542.728H286.684V545.272H296.38V542.728H298.876V551.608H284.188V542.728ZM286.684 547.192V549.64H296.38V547.192H286.684ZM314.93 546.4H319.802V548.464H314.93V546.4ZM308.954 543.16H311.018V545.344C311.018 546.768 310.786 548.104 310.322 549.352C309.858 550.584 309.17 551.656 308.258 552.568C307.362 553.48 306.266 554.176 304.97 554.656L303.65 552.664C304.802 552.264 305.77 551.696 306.554 550.96C307.354 550.208 307.954 549.352 308.354 548.392C308.754 547.432 308.954 546.416 308.954 545.344V543.16ZM309.458 543.16H311.474V545.488C311.474 546.208 311.586 546.912 311.81 547.6C312.05 548.288 312.386 548.936 312.818 549.544C313.266 550.136 313.81 550.664 314.45 551.128C315.09 551.592 315.818 551.968 316.634 552.256L315.314 554.224C314.066 553.776 313.002 553.12 312.122 552.256C311.258 551.376 310.594 550.36 310.13 549.208C309.682 548.04 309.458 546.8 309.458 545.488V543.16ZM307.106 556.168H321.866V563.992H319.346V558.184H307.106V556.168ZM319.346 542.056H321.866V555.04H319.346V542.056Z" fill="white"/>
<path d="M259.639 351.692L257.013 350.119L261.085 343.43L245.888 346.246L245.021 343.464L260.218 340.648L252.652 336.116L254.065 333.794L266.134 341.023L259.639 351.692ZM271.649 337.01L259.581 329.78L266.075 319.112L268.702 320.685L264.63 327.374L279.827 324.558L280.693 327.34L265.496 330.156L273.063 334.688L271.649 337.01Z" fill="#FF0059"/>
<path d="M283.509 375.598L291.422 370.196L294.899 375.483L304.748 368.807L303.924 373.056L307.173 373.711L309.1 363.778L299.351 361.815L298.708 365.126L302.879 365.966L295.809 370.792L292.332 365.505L281.684 372.822L283.509 375.598ZM274.936 386.142C274.07 385.968 273.376 385.484 272.854 384.691C272.333 383.898 272.157 383.06 272.329 382.177L278.75 349.067C278.921 348.184 279.396 347.477 280.174 346.946C280.952 346.414 281.775 346.236 282.642 346.41L315.138 352.953C316.005 353.127 316.699 353.611 317.22 354.404C317.742 355.197 317.917 356.035 317.746 356.918L311.325 390.028C311.154 390.911 310.679 391.618 309.9 392.149C309.122 392.68 308.3 392.859 307.433 392.684L274.936 386.142ZM275.578 382.831L308.075 389.373L314.496 356.264L281.999 349.721L275.578 382.831Z" fill="#FF7A59"/>
<path d="M258.042 181.934C258.593 181.503 258.869 180.969 258.869 180.331C258.869 179.694 258.593 179.159 258.042 178.728C257.491 178.297 256.808 178.081 255.994 178.081C255.179 178.081 254.496 178.297 253.945 178.728C253.394 179.159 253.119 179.694 253.119 180.331C253.119 180.969 253.394 181.503 253.945 181.934C254.496 182.366 255.179 182.581 255.994 182.581C256.808 182.581 257.491 182.366 258.042 181.934ZM270.764 181.934C271.315 181.503 271.591 180.969 271.591 180.331C271.591 179.694 271.315 179.159 270.764 178.728C270.213 178.297 269.53 178.081 268.716 178.081C267.901 178.081 267.218 178.297 266.667 178.728C266.116 179.159 265.841 179.694 265.841 180.331C265.841 180.969 266.116 181.503 266.667 181.934C267.218 182.366 267.901 182.581 268.716 182.581C269.53 182.581 270.213 182.366 270.764 181.934ZM282.983 181.934C283.534 181.503 283.809 180.969 283.809 180.331C283.809 179.694 283.534 179.159 282.983 178.728C282.432 178.297 281.749 178.081 280.934 178.081C280.12 178.081 279.437 178.297 278.886 178.728C278.335 179.159 278.059 179.694 278.059 180.331C278.059 180.969 278.335 181.503 278.886 181.934C279.437 182.366 280.12 182.581 280.934 182.581C281.749 182.581 282.432 182.366 282.983 181.934ZM239.75 207.5V165.875C239.75 164.975 240.181 164.188 241.044 163.512C241.906 162.837 242.912 162.5 244.062 162.5H292.938C294.087 162.5 295.094 162.837 295.956 163.512C296.819 164.188 297.25 164.975 297.25 165.875V195.125C297.25 196.025 296.819 196.812 295.956 197.487C295.094 198.162 294.087 198.5 292.938 198.5H251.25L239.75 207.5ZM249.381 195.125H292.938V165.875H244.062V199.625L249.381 195.125Z" fill="#06607F"/>
<rect x="241.79" y="164.75" width="52.3064" height="30.375" fill="#06607F"/>
<path d="M243.347 194.751L250.345 194.665L243.794 201.811L243.347 194.751Z" fill="#06607F"/>
<ellipse cx="255.145" cy="180.5" rx="2.22581" ry="2.25" fill="#121212"/>
<ellipse cx="268.5" cy="180.5" rx="2.22581" ry="2.25" fill="#121212"/>
<ellipse cx="281.855" cy="180.5" rx="2.22581" ry="2.25" fill="#121212"/>
<rect x="133.152" y="276.735" width="62.5426" height="50.4924" rx="25.2462" transform="rotate(-11.2275 133.152 276.735)" fill="#1153EE"/>
<g filter="url(#filter0_i_1017_70)">
<path d="M146.769 286.339C147.523 283.046 145.433 279.774 142.129 279.072C139.531 278.521 136.877 279.728 135.586 282.049L131.327 289.704C130.765 290.716 130.345 291.801 130.081 292.928L128.891 298.007C127.939 302.067 130.523 306.113 134.607 306.957C138.556 307.774 142.433 305.283 143.333 301.352L146.769 286.339Z" fill="#1153EE"/>
</g>
<g filter="url(#filter1_i_1017_70)">
<path d="M183.611 279.385C181.321 276.563 181.785 272.412 184.643 270.167C186.89 268.401 190.025 268.308 192.373 269.936L200.118 275.308C201.141 276.018 202.061 276.866 202.851 277.829L206.41 282.169C209.255 285.638 208.68 290.771 205.138 293.524C201.711 296.186 196.786 295.621 194.052 292.252L183.611 279.385Z" fill="#1153EE"/>
</g>
<path d="M200.349 228.726C199.705 225.483 201.813 222.331 205.056 221.687C208.3 221.043 211.452 223.151 212.096 226.395L214.6 239.012C215.244 242.256 213.137 245.407 209.893 246.051C206.649 246.695 203.497 244.587 202.853 241.344L200.349 228.726Z" fill="#1153EE"/>
<path d="M102.311 248.564C101.668 245.32 103.775 242.169 107.019 241.525C110.263 240.881 113.415 242.989 114.058 246.232L116.563 258.85C117.207 262.093 115.099 265.245 111.855 265.889C108.612 266.533 105.46 264.425 104.816 261.181L102.311 248.564Z" fill="#1153EE"/>
<rect x="102.366" y="220.742" width="101.133" height="67.4218" rx="33.7109" transform="rotate(-11.2275 102.366 220.742)" fill="#FDF6EE"/>
<rect x="114.286" y="229.154" width="81.0244" height="46.2785" rx="23.1393" transform="rotate(-11.2275 114.286 229.154)" fill="#1C2A4B"/>
<ellipse cx="142.198" cy="247.694" rx="4.9901" ry="5.13795" transform="rotate(-11.2275 142.198 247.694)" fill="#E3FB4C"/>
<ellipse cx="177.366" cy="240.712" rx="4.9901" ry="5.13795" transform="rotate(-11.2275 177.366 240.712)" fill="#E3FB4C"/>
<path d="M157.911 253.43L156.472 252.849L155.941 252.842L155.454 253.051L155.272 253.276L155.075 253.617L155.147 253.979L155.233 254.414L155.617 254.828L157.543 255.576L159.491 255.868L161.309 255.695L163.309 255.11L165.464 253.778L166.885 252.365L166.958 251.974L166.922 251.792L166.676 251.314L166.255 250.907L165.725 250.9L165.201 251.117L164.996 251.421L163.431 252.674L161.648 253.405L159.699 253.679L157.911 253.43Z" fill="#E2FA50" stroke="#E2FA50"/>
<g filter="url(#filter2_d_1017_70)">
<g filter="url(#filter3_d_1017_70)">
<ellipse cx="169.638" cy="291.576" rx="10.5716" ry="9.61056" transform="rotate(-11.2275 169.638 291.576)" fill="#FAE7C9"/>
</g>
<g filter="url(#filter4_d_1017_70)">
<ellipse cx="169.861" cy="292.7" rx="8.42772" ry="8.16898" transform="rotate(-11.2275 169.861 292.7)" fill="#F4D2A1"/>
</g>
<rect x="152.844" y="294.684" width="32.3802" height="19.6647" rx="9.83234" transform="rotate(-11.2275 152.844 294.684)" fill="#1457F1"/>
<rect x="152.787" y="294.394" width="32.3802" height="12.4937" rx="6.24686" transform="rotate(-11.2275 152.787 294.394)" fill="#1457F1"/>
<g filter="url(#filter5_di_1017_70)">
<path d="M173.654 296.62C173.507 295.879 173.988 295.16 174.729 295.013L179.515 294.063C180.256 293.915 180.976 294.397 181.123 295.138C181.27 295.879 180.788 296.598 180.048 296.745L175.262 297.695C174.521 297.843 173.801 297.361 173.654 296.62Z" fill="#F7A896"/>
</g>
</g>
<defs>
<filter id="filter0_i_1017_70" x="128.693" y="278.94" width="18.2295" height="28.1722" filterUnits="userSpaceOnUse" color-interpolation-filters="sRGB">
<feFlood flood-opacity="0" result="BackgroundImageFix"/>
<feBlend mode="normal" in="SourceGraphic" in2="BackgroundImageFix" result="shape"/>
<feColorMatrix in="SourceAlpha" type="matrix" values="0 0 0 0 0 0 0 0 0 0 0 0 0 0 0 0 0 0 127 0" result="hardAlpha"/>
<feOffset dx="-40" dy="4"/>
<feGaussianBlur stdDeviation="2"/>
<feComposite in2="hardAlpha" operator="arithmetic" k2="-1" k3="1"/>
<feColorMatrix type="matrix" values="0 0 0 0 0.0196078 0 0 0 0 0.239216 0 0 0 0 0.717647 0 0 0 0.5 0"/>
<feBlend mode="normal" in2="shape" result="effect1_innerShadow_1017_70"/>
</filter>
<filter id="filter1_i_1017_70" x="182.156" y="268.776" width="26.0635" height="26.4258" filterUnits="userSpaceOnUse" color-interpolation-filters="sRGB">
<feFlood flood-opacity="0" result="BackgroundImageFix"/>
<feBlend mode="normal" in="SourceGraphic" in2="BackgroundImageFix" result="shape"/>
<feColorMatrix in="SourceAlpha" type="matrix" values="0 0 0 0 0 0 0 0 0 0 0 0 0 0 0 0 0 0 127 0" result="hardAlpha"/>
<feOffset dx="40" dy="2"/>
<feGaussianBlur stdDeviation="2"/>
<feComposite in2="hardAlpha" operator="arithmetic" k2="-1" k3="1"/>
<feColorMatrix type="matrix" values="0 0 0 0 0.0196078 0 0 0 0 0.239216 0 0 0 0 0.717647 0 0 0 0.5 0"/>
<feBlend mode="normal" in2="shape" result="effect1_innerShadow_1017_70"/>
</filter>
<filter id="filter2_d_1017_70" x="151.882" y="281.926" width="36.8271" height="34.3223" filterUnits="userSpaceOnUse" color-interpolation-filters="sRGB">
<feFlood flood-opacity="0" result="BackgroundImageFix"/>
<feColorMatrix in="SourceAlpha" type="matrix" values="0 0 0 0 0 0 0 0 0 0 0 0 0 0 0 0 0 0 127 0" result="hardAlpha"/>
<feOffset dy="2"/>
<feGaussianBlur stdDeviation="1"/>
<feComposite in2="hardAlpha" operator="out"/>
<feColorMatrix type="matrix" values="0 0 0 0 0 0 0 0 0 0 0 0 0 0 0 0 0 0 0.25 0"/>
<feBlend mode="normal" in2="BackgroundImageFix" result="effect1_dropShadow_1017_70"/>
<feBlend mode="normal" in="SourceGraphic" in2="effect1_dropShadow_1017_70" result="shape"/>
</filter>
<filter id="filter3_d_1017_70" x="156.099" y="263.926" width="37.0771" height="37.3015" filterUnits="userSpaceOnUse" color-interpolation-filters="sRGB">
<feFlood flood-opacity="0" result="BackgroundImageFix"/>
<feColorMatrix in="SourceAlpha" type="matrix" values="0 0 0 0 0 0 0 0 0 0 0 0 0 0 0 0 0 0 127 0" result="hardAlpha"/>
<feOffset dx="5" dy="-10"/>
<feGaussianBlur stdDeviation="4"/>
<feComposite in2="hardAlpha" operator="out"/>
<feColorMatrix type="matrix" values="0 0 0 0 0 0 0 0 0 0 0 0 0 0 0 0 0 0 0.25 0"/>
<feBlend mode="normal" in2="BackgroundImageFix" result="effect1_dropShadow_1017_70"/>
<feBlend mode="normal" in="SourceGraphic" in2="effect1_dropShadow_1017_70" result="shape"/>
</filter>
<filter id="filter4_d_1017_70" x="157.441" y="284.52" width="24.8394" height="24.3611" filterUnits="userSpaceOnUse" color-interpolation-filters="sRGB">
<feFlood flood-opacity="0" result="BackgroundImageFix"/>
<feColorMatrix in="SourceAlpha" type="matrix" values="0 0 0 0 0 0 0 0 0 0 0 0 0 0 0 0 0 0 127 0" result="hardAlpha"/>
<feOffset dy="4"/>
<feGaussianBlur stdDeviation="2"/>
<feComposite in2="hardAlpha" operator="out"/>
<feColorMatrix type="matrix" values="0 0 0 0 0 0 0 0 0 0 0 0 0 0 0 0 0 0 0.25 0"/>
<feBlend mode="normal" in2="BackgroundImageFix" result="effect1_dropShadow_1017_70"/>
<feBlend mode="normal" in="SourceGraphic" in2="effect1_dropShadow_1017_70" result="shape"/>
</filter>
<filter id="filter5_di_1017_70" x="169.627" y="294.036" width="15.5217" height="11.6858" filterUnits="userSpaceOnUse" color-interpolation-filters="sRGB">
<feFlood flood-opacity="0" result="BackgroundImageFix"/>
<feColorMatrix in="SourceAlpha" type="matrix" values="0 0 0 0 0 0 0 0 0 0 0 0 0 0 0 0 0 0 127 0" result="hardAlpha"/>
<feOffset dy="4"/>
<feGaussianBlur stdDeviation="2"/>
<feComposite in2="hardAlpha" operator="out"/>
<feColorMatrix type="matrix" values="0 0 0 0 0 0 0 0 0 0 0 0 0 0 0 0 0 0 0.25 0"/>
<feBlend mode="normal" in2="BackgroundImageFix" result="effect1_dropShadow_1017_70"/>
<feBlend mode="normal" in="SourceGraphic" in2="effect1_dropShadow_1017_70" result="shape"/>
<feColorMatrix in="SourceAlpha" type="matrix" values="0 0 0 0 0 0 0 0 0 0 0 0 0 0 0 0 0 0 127 0" result="hardAlpha"/>
<feOffset dy="-28"/>
<feGaussianBlur stdDeviation="5"/>
<feComposite in2="hardAlpha" operator="arithmetic" k2="-1" k3="1"/>
<feColorMatrix type="matrix" values="0 0 0 0 0.984314 0 0 0 0 0.54902 0 0 0 0 0.458824 0 0 0 1 0"/>
<feBlend mode="normal" in2="shape" result="effect2_innerShadow_1017_70"/>
</filter>
<linearGradient id="paint0_linear_1017_70" x1="134" y1="146" x2="134" y2="346" gradientUnits="userSpaceOnUse">
<stop offset="0.0177515" stop-color="#A8DFF5"/>
<stop offset="1" stop-color="#D0DEED"/>
</linearGradient>
</defs>
</svg>
